<svg xmlns="http://www.w3.org/2000/svg" viewBox="0 0 1200 800" width="1200" height="800" role="img"> <defs><linearGradient id="wall" x1="0" y1="0" x2="0" y2="1"><stop offset="0" stop-color="#eef7f6"/><stop offset="1" stop-color="#ffffff"/></linearGradient></defs> <rect width="1200" height="800" fill="url(#wall)"/> <rect y="596" width="1200" height="204" fill="#fbf8f3"/> <ellipse cx="600" cy="610" rx="470" ry="120" fill="#eef7f6" opacity=".5"/> <circle cx="930" cy="180" r="230" fill="#ffffff" opacity=".28"/><ellipse cx="600" cy="660" rx="400" ry="34" fill="#12211f" opacity=".12"/> <rect x="228" y="300" width="360" height="200" rx="30" fill="#1c6663"/> <rect x="252" y="322" width="312" height="156" rx="20" fill="#73bcb5"/> <rect x="196" y="332" width="80" height="232" rx="36" fill="#1c6663"/> <g transform="translate(0 6)"> <rect x="470" y="470" width="540" height="42" rx="14" fill="#123736"/> <rect x="452" y="418" width="576" height="66" rx="20" fill="#ffffff"/> <rect x="452" y="418" width="576" height="66" rx="20" fill="#d4ebe8" opacity=".7"/> <g stroke="#73bcb5" stroke-width="5" stroke-linecap="round" opacity=".9"> <path d="M520 430v42M600 430v42M680 430v42M760 430v42M840 430v42M920 430v42"/> </g> <rect x="700" y="404" width="120" height="22" rx="10" fill="#fed7aa"/> </g> <rect x="500" y="512" width="26" height="54" rx="10" fill="#6b4c31"/> <rect x="960" y="512" width="26" height="54" rx="10" fill="#6b4c31"/> <rect x="226" y="560" width="26" height="46" rx="10" fill="#6b4c31"/><path transform="translate(400 318) scale(0.85)" d="M0 0c-16-22 14-34 0-58s10-36 0-56" stroke="#ffffff" stroke-width="9" fill="none" stroke-linecap="round" opacity=".75"/><path transform="translate(640 360) scale(0.7)" d="M0 0c-16-22 14-34 0-58s10-36 0-56" stroke="#ffffff" stroke-width="9" fill="none" stroke-linecap="round" opacity=".75"/><path transform="translate(900 300) scale(0.85)" d="M0-26c3 16 7 20 23 23-16 3-20 7-23 23-3-16-7-20-23-23 16-3 20-7 23-23z" fill="#f2760c" opacity=".9"/><path transform="translate(300 250) scale(0.65)" d="M0-26c3 16 7 20 23 23-16 3-20 7-23 23-3-16-7-20-23-23 16-3 20-7 23-23z" fill="#f2760c" opacity=".9"/> </svg>
